<svg viewBox="0 0 486 134" fill="none" xmlns="http://www.w3.org/2000/svg">
							<path d="M191.249 105.905H177.439V37.5596H191.249V105.905ZM241.469 105.905H224.477L202.739 82.0623C199.934 78.8796 198.531 75.4273 198.531 71.5974C198.531 67.7675 199.987 64.5848 202.846 61.4022L224.747 37.5596H241.631L212.232 69.6015C211.855 69.8712 211.531 70.1949 211.315 70.5185C211.1 70.8422 210.992 71.2198 210.992 71.5434C210.992 71.8132 211.1 72.1368 211.315 72.4605C211.531 72.7841 211.855 73.1617 212.232 73.4854L241.523 105.851L241.469 105.905Z" fill="black"></path>
							<path d="M258.245 24.0744C256.681 24.0744 255.171 23.6968 253.768 22.8877C252.366 22.0785 251.287 20.9997 250.424 19.5972C249.615 18.1947 249.183 16.6843 249.183 15.012C249.183 13.3398 249.615 11.8294 250.424 10.4269C251.287 9.02441 252.366 7.94556 253.768 7.08248C255.171 6.21939 256.627 5.8418 258.245 5.8418C259.918 5.8418 261.428 6.27334 262.777 7.08248C264.125 7.94556 265.204 9.02441 266.013 10.4269C266.822 11.8294 267.2 13.3398 267.2 15.012C267.2 16.6843 266.822 18.2486 266.013 19.5972C265.204 20.9997 264.179 22.0785 262.777 22.8877C261.428 23.6968 259.918 24.0744 258.245 24.0744ZM251.395 37.614H265.204V105.959H251.395V37.614Z" fill="black"></path>
							<path d="M333.01 105.905H289.209C284.462 105.905 280.848 104.664 278.42 102.129C275.939 99.6476 274.698 96.7886 274.698 93.606C274.698 90.801 275.238 88.4275 276.37 86.4316C277.503 84.4357 279.229 82.6556 281.657 81.0374L317.637 54.5515C318.662 53.6884 319.147 52.7714 319.147 51.7465C319.147 50.9374 318.877 50.344 318.338 50.0203C317.798 49.6967 317.097 49.5348 316.234 49.5348H276.209V37.5596H319.039C323.678 37.5596 327.238 38.8003 329.72 41.3356C332.201 43.8169 333.388 46.6759 333.388 49.8585C333.388 52.6635 332.848 55.037 331.716 56.9789C330.583 58.9209 328.857 60.8089 326.537 62.535L290.557 89.0209C289.425 89.7761 288.885 90.6931 288.885 91.8259C288.885 92.5811 289.155 93.1205 289.748 93.4981C290.288 93.8757 290.935 94.0915 291.69 94.0915H332.956V105.959L333.01 105.905Z" fill="black"></path>
							<path d="M377.297 107.469C370.392 107.469 364.243 105.905 358.741 102.83C353.238 99.7016 348.923 95.4401 345.794 89.9919C342.612 84.5437 341.047 78.3403 341.047 71.3817C341.047 64.8546 342.504 58.9209 345.363 53.4727C348.222 48.0245 352.267 43.7091 357.5 40.5265C362.678 37.2899 368.72 35.7256 375.625 35.7256C382.529 35.7256 388.409 37.236 393.426 40.2568C398.388 43.2776 402.272 47.3772 405.023 52.5557C407.774 57.7342 409.123 63.4521 409.123 69.7634V75.3195H351.836L354.371 69.7634C354.101 74.6183 354.857 78.9337 356.745 82.7097C358.579 86.5396 361.276 89.5604 364.836 91.826C368.342 94.0916 372.496 95.2243 377.243 95.2243C381.504 95.2243 385.388 94.3073 388.894 92.4193C392.401 90.5853 395.152 87.7803 397.202 84.0582L407.774 89.5064C404.808 95.3862 400.654 99.8095 395.368 102.884C390.081 105.959 384.094 107.469 377.405 107.469H377.297ZM354.965 66.3111H395.26C395.098 62.6969 394.127 59.4604 392.401 56.7093C390.675 53.9043 388.355 51.8005 385.442 50.2901C382.529 48.7797 379.185 48.0785 375.463 48.0785C371.741 48.0785 368.288 48.8876 365.375 50.4519C362.463 52.0163 360.143 54.2279 358.417 57.0329C356.691 59.838 355.558 62.9127 355.018 66.365L354.965 66.3111Z" fill="black"></path>
							<path d="M450.551 49.1576C446.074 49.1576 442.352 50.2904 439.385 52.502C436.418 54.7137 434.152 57.6266 432.696 61.1329C431.185 64.6391 430.484 68.5769 430.484 72.8384V105.905H416.675V71.4898C416.675 64.801 417.969 58.7594 420.559 53.4191C423.148 48.0787 426.978 43.8173 431.995 40.6346C437.011 37.506 443.215 35.8877 450.551 35.8877C457.887 35.8877 464.36 37.452 469.431 40.6346C474.501 43.8173 478.331 48.0787 481.028 53.4191C483.726 58.7594 485.02 64.747 485.02 71.328V105.905H471.211V73.0002C471.211 68.7388 470.456 64.801 468.891 61.2407C467.327 57.6805 465.061 54.7676 462.041 52.502C459.02 50.2904 455.19 49.1576 450.551 49.1576Z" fill="black"></path>
							<g clip-path="url(#clip0_123_91)">
							<path d="M45.8194 49.3555C47.7534 54.5284 42.342 59.7672 37.267 58.382C35.1376 57.8114 33.4248 56.2215 32.7001 54.1241C26.8367 38.2683 30.7334 19.1913 41.3593 6.09523C46.4672 -0.199651 56.302 0.582976 60.3666 7.597L60.4473 7.73677C46.7147 16.2741 40.4955 34.273 45.8194 49.3555ZM57.8131 97.1538C57.1214 99.0109 55.6449 100.459 53.7725 101.118C38.021 107.051 18.7063 103.028 5.64026 92.4202C-0.662665 87.3047 0.143473 77.4475 7.17763 73.3947L7.28743 73.3313C15.4751 86.8264 34.135 93.3877 49.082 88.0327C54.3759 86.0034 59.7943 92.0425 57.8081 97.1567L57.8131 97.1538ZM100.225 113.802C98.245 119.082 95.4141 123.932 91.8979 128.159C86.7643 134.329 77.032 133.447 73.0128 126.5L72.9696 126.425C86.6502 117.925 92.8737 99.9566 87.6358 84.9308C86.4786 81.5823 88.1135 78.0156 91.2051 76.5694C106.98 70.2504 104.248 105.73 100.226 113.798L100.225 113.802ZM104.351 20.6443L104.33 20.7231C88.5893 16.995 71.3666 25.3483 64.4548 39.8235C63.04 42.7107 59.8189 44.2151 56.7842 43.4019C40.8778 38.4984 63.0481 15.6794 76.1324 10.3487C81.3338 8.00341 86.6915 6.58626 92.1697 6.1045C100.171 5.40001 106.426 12.8828 104.347 20.6433L104.351 20.6443ZM81.585 100.223C74.2953 115.825 58.461 126.365 41.4526 128.062C33.3692 128.867 26.957 121.389 29.0596 113.541L29.0849 113.447C44.8314 117.168 62.0302 108.825 68.942 94.3501C72.774 86.4726 85.4009 92.1855 81.585 100.223ZM113.143 104.763L113.033 104.734C116.76 88.9493 108.433 71.7707 93.9566 64.8365C91.0705 63.4217 89.5653 60.191 90.3766 57.1632C96.03 40.6459 118.586 65.6038 122.181 74.0071C125.298 79.9315 127.128 86.1359 127.681 92.5591C128.369 100.572 120.91 106.84 113.144 104.759L113.143 104.763ZM43.0231 77.0155C38.2135 92.6195 16.2318 71.4699 10.5954 58.9707C7.86166 53.3345 6.24144 47.4945 5.73202 41.4922C5.0579 33.5383 12.5717 27.3648 20.2784 29.4298L20.365 29.453C16.6214 45.2034 24.9833 62.425 39.4531 69.3364C42.3353 70.7501 43.8365 73.9798 43.0231 77.0155ZM126.189 60.7963L126.06 60.8712C117.561 47.1366 99.5676 40.889 84.5073 46.163C83.205 46.599 81.8271 46.656 80.5204 46.3058C76.6953 45.2936 74.2788 40.6624 75.6729 36.9551C76.343 35.1471 77.7614 33.7421 79.5632 33.1108C95.3163 27.1404 114.606 31.2078 127.688 41.7731C134 46.87 133.21 56.7314 126.189 60.7963Z" fill="black"></path>
							</g>
							<defs>
							<clipPath id="clip0_123_91">
							<rect width="132.404" height="132.404" fill="white" transform="translate(0.497559 0.880859)"></rect>
							</clipPath>
							</defs>
						</svg>